<svg xmlns="http://www.w3.org/2000/svg" viewBox="0 0 920 300" width="920" height="300" font-family="-apple-system, BlinkMacSystemFont, &#39;Segoe UI&#39;, &#39;Noto Sans&#39;, Helvetica, Arial, sans-serif" role="img" aria-label="Johnson Wang — Cornell CS">
  <defs>
    <linearGradient id="bg" x1="0" y1="0" x2="0.15" y2="1">
      <stop offset="0" stop-color="#16203b"></stop>
      <stop offset="1" stop-color="#0d1117"></stop>
    </linearGradient>
    <radialGradient id="spot" cx="0.78" cy="0.2" r="0.8">
      <stop offset="0" stop-color="#6f9cf0" stop-opacity="0.16"></stop>
      <stop offset="1" stop-color="#6f9cf0" stop-opacity="0"></stop>
    </radialGradient>
  </defs>

  <rect width="920" height="300" fill="url(#bg)"></rect>
  <rect width="920" height="300" fill="url(#spot)"></rect>

  
  <g stroke="rgba(170,186,235,0.20)" stroke-width="1.4" fill="none">
    <line x1="-40" y1="300" x2="300" y2="86"></line>
    <line x1="180" y1="300" x2="430" y2="86"></line>
    <line x1="420" y1="300" x2="560" y2="86"></line>
    <line x1="980" y1="300" x2="660" y2="86"></line>
    <line x1="120" y1="250" x2="760" y2="250" opacity="0.8"></line>
    <line x1="250" y1="160" x2="660" y2="160" opacity="0.55"></line>
    <line x1="320" y1="118" x2="610" y2="118" opacity="0.4"></line>
  </g>

  
  <g opacity="0.5">
    <line x1="690" y1="60" x2="690" y2="190" stroke="#f4b483" stroke-width="1.6"></line>
    <line x1="612" y1="70" x2="690" y2="64" stroke="rgba(170,186,235,0.20)" stroke-width="0.9"></line>
    <line x1="612" y1="83" x2="690" y2="76" stroke="rgba(170,186,235,0.20)" stroke-width="0.9"></line>
    <line x1="612" y1="96" x2="690" y2="88" stroke="rgba(170,186,235,0.20)" stroke-width="0.9"></line>
    <line x1="612" y1="109" x2="690" y2="100" stroke="rgba(170,186,235,0.20)" stroke-width="0.9"></line>
    <line x1="612" y1="122" x2="690" y2="112" stroke="rgba(170,186,235,0.20)" stroke-width="0.9"></line>
    <line x1="612" y1="135" x2="690" y2="124" stroke="rgba(170,186,235,0.20)" stroke-width="0.9"></line>
    <line x1="612" y1="148" x2="690" y2="136" stroke="rgba(170,186,235,0.20)" stroke-width="0.9"></line>
    <line x1="612" y1="161" x2="690" y2="148" stroke="rgba(170,186,235,0.20)" stroke-width="0.9"></line>
    <line x1="612" y1="174" x2="690" y2="160" stroke="rgba(170,186,235,0.20)" stroke-width="0.9"></line>
    <line x1="620" y1="66" x2="620" y2="176" stroke="rgba(170,186,235,0.20)" stroke-width="0.8"></line>
    <line x1="631" y1="66" x2="631" y2="176" stroke="rgba(170,186,235,0.20)" stroke-width="0.8"></line>
    <line x1="642" y1="66" x2="642" y2="176" stroke="rgba(170,186,235,0.20)" stroke-width="0.8"></line>
    <line x1="653" y1="66" x2="653" y2="176" stroke="rgba(170,186,235,0.20)" stroke-width="0.8"></line>
    <line x1="664" y1="66" x2="664" y2="176" stroke="rgba(170,186,235,0.20)" stroke-width="0.8"></line>
    <line x1="675" y1="66" x2="675" y2="176" stroke="rgba(170,186,235,0.20)" stroke-width="0.8"></line>
    <line x1="686" y1="66" x2="686" y2="176" stroke="rgba(170,186,235,0.20)" stroke-width="0.8"></line>
    <line x1="610" y1="66" x2="694" y2="60" stroke="#f4b483" stroke-width="2" opacity="0.8"></line>
  </g>

  
  <path d="M 70 250 Q 360 -30 612 120" fill="none" stroke="#6f9cf0" stroke-width="2" stroke-dasharray="2 9" stroke-linecap="round" opacity="0.7"></path>

  
  <g transform="translate(612,120) scale(0.92) rotate(128)">
    <path d="M -23 -52 L -13 -8 L 13 -8 L 23 -52" fill="none" stroke="rgba(170,186,235,0.6)" stroke-width="1.4" opacity="0.5"></path>
    <line x1="-19" y1="-37" x2="19" y2="-37" stroke="rgba(170,186,235,0.6)" stroke-width="1.2" opacity="0.4"></line>
    <line x1="-6.5" y1="-8" x2="-23" y2="-52" stroke="#f4b483" stroke-width="2.4" stroke-linecap="round" opacity="0.85"></line>
    <line x1="-4.33" y1="-8" x2="-15.33" y2="-52" stroke="#f4b483" stroke-width="2.4" stroke-linecap="round" opacity="0.85"></line>
    <line x1="-2.17" y1="-8" x2="-7.67" y2="-52" stroke="#f4b483" stroke-width="2.4" stroke-linecap="round" opacity="0.85"></line>
    <line x1="0" y1="-8" x2="0" y2="-52" stroke="#f4b483" stroke-width="2.4" stroke-linecap="round" opacity="0.85"></line>
    <line x1="2.17" y1="-8" x2="7.67" y2="-52" stroke="#f4b483" stroke-width="2.4" stroke-linecap="round" opacity="0.85"></line>
    <line x1="4.33" y1="-8" x2="15.33" y2="-52" stroke="#f4b483" stroke-width="2.4" stroke-linecap="round" opacity="0.85"></line>
    <line x1="6.5" y1="-8" x2="23" y2="-52" stroke="#f4b483" stroke-width="2.4" stroke-linecap="round" opacity="0.85"></line>
    <path d="M -13 -8 Q -13 8 0 9 Q 13 8 13 -8 Z" fill="#f6ead9"></path>
    <ellipse cx="0" cy="-8" rx="13" ry="3.4" fill="#f6ead9" stroke="rgba(170,186,235,0.6)" stroke-width="0.8"></ellipse>
  </g>

  
  <text x="64" y="150" font-size="58" font-weight="800" fill="#eceef6" letter-spacing="-1.5">Johnson Wang</text>
  <text x="66" y="190" font-size="17" fill="#6f9cf0" letter-spacing="0.5" font-family="ui-monospace, SFMono-Regular, Menlo, Consolas, monospace">@J0hns0n-Wang</text>
  <text x="66" y="222" font-size="17" fill="#a7adc6">Cornell University · Computer Science</text>

  <g font-size="12.5" fill="#878da8" font-family="ui-monospace, SFMono-Regular, Menlo, Consolas, monospace">
    <text x="66" y="262">full-stack</text>
    <text x="160" y="262" fill="rgba(170,186,235,0.9)">·</text>
    <text x="176" y="262">badminton</text>
    <text x="272" y="262" fill="rgba(170,186,235,0.9)">·</text>
    <text x="288" y="262">always one more rally</text>
  </g>
</svg>